<svg xmlns="http://www.w3.org/2000/svg" xmlns:xlink="http://www.w3.org/1999/xlink" width="300" height="160" viewBox="0 0 300 160">
  <defs>
    <clipPath id="clip-path">
      <path id="Path_6" data-name="Path 6" d="M0-83H400.929V-283.465H0Z" transform="translate(0 283.465)"/>
    </clipPath>
    <clipPath id="clip-Custom_Size_1">
      <rect width="300" height="160"/>
    </clipPath>
  </defs>
  <g id="Custom_Size_1" data-name="Custom Size – 1" clip-path="url(#clip-Custom_Size_1)">
    <g id="nadacia-eph" transform="translate(15.929 12.965)">
      <g id="Layer" transform="translate(-65.929 -32.965)">
        <g id="Group_1" data-name="Group 1" clip-path="url(#clip-path)">
          <path id="Path_1" data-name="Path 1" d="M-17.6-10.485V-22.9H-2.621v12.418H-.23V-35.809H-2.621v10.867H-17.6V-35.809H-20v25.324ZM-37.755-23.71V-33.77h6.188c2.277,0,3.932.41,4.978,1.231a4.336,4.336,0,0,1,1.564,3.623,5.786,5.786,0,0,1-.511,2.622,3.912,3.912,0,0,1-1.442,1.581,6.018,6.018,0,0,1-2.264.791,19.357,19.357,0,0,1-3.025.211Zm0,13.225V-21.673h5.416a19.715,19.715,0,0,0,3.5-.313,9.649,9.649,0,0,0,3.112-1.11A6.344,6.344,0,0,0-23.5-25.258a6.448,6.448,0,0,0,.861-3.482A9.622,9.622,0,0,0-23-31.43,5.44,5.44,0,0,0-24.3-33.7a6.339,6.339,0,0,0-2.532-1.547,12.481,12.481,0,0,0-4.06-.561h-9.252v25.324Zm-5.17,0v-2.04H-57.732V-22.586h13.05v-2.039h-13.05V-33.77h14.455v-2.039H-60.122v25.324Z" transform="translate(324.768 123.455)" fill="#696976"/>
          <path id="Path_2" data-name="Path 2" d="M-6.226-4.348A5.257,5.257,0,0,0-.974-9.6a5.257,5.257,0,0,0-5.252-5.251c-6.975,0-13.629,9.2-15.036,11.263.966,1.417,4.41,6.2,8.737,9.056A10.565,10.565,0,0,1-13,2.424,6.78,6.78,0,0,1-6.226-4.348" transform="translate(97.653 103.82)" fill="#696976"/>
          <path id="Path_3" data-name="Path 3" d="M-8.4-3.749a35.959,35.959,0,0,0-8.736-9.056,10.538,10.538,0,0,1,.472,3.043,6.781,6.781,0,0,1-6.772,6.774,5.257,5.257,0,0,0-5.252,5.25,5.259,5.259,0,0,0,5.252,5.253c6.976,0,13.63-9.2,15.036-11.264" transform="translate(126.888 103.982)" fill="#696976"/>
          <path id="Path_4" data-name="Path 4" d="M-8.413-6.226c0-6.976-9.2-13.63-11.264-15.036a35.988,35.988,0,0,0-9.055,8.735A10.555,10.555,0,0,1-25.689-13a6.781,6.781,0,0,1,6.773,6.774A5.257,5.257,0,0,0-13.664-.974,5.257,5.257,0,0,0-8.413-6.226" transform="translate(117.116 100.446)" fill="#696976"/>
          <path id="Path_5" data-name="Path 5" d="M-4.663-8.4a35.924,35.924,0,0,0,9.056-8.737,10.51,10.51,0,0,1-3.043.472,6.78,6.78,0,0,1-6.773-6.773,5.258,5.258,0,0,0-5.252-5.25,5.256,5.256,0,0,0-5.25,5.25c0,6.977,9.2,13.632,11.263,15.038" transform="translate(102.103 129.681)" fill="#696976"/>
        </g>
        <path id="Path_7" data-name="Path 7" d="M-1.019-1.339h-.071V20.734h-2.39V-4.572H-.773L13.849,17.536h.07V-4.572h2.39V20.734H13.532Z" transform="translate(135.209 92.236)" fill="#696976"/>
        <g id="Group_2" data-name="Group 2" clip-path="url(#clip-path)">
          <path id="Path_8" data-name="Path 8" d="M-3.842-3.347q.6-.069,1.424-.211a5.331,5.331,0,0,0,1.353-.387,1.12,1.12,0,0,0,.651-.826A5.229,5.229,0,0,0-.292-5.842,3.6,3.6,0,0,0-1.329-8.5a4.838,4.838,0,0,0-3.5-1.037,9.754,9.754,0,0,0-2,.193,4.358,4.358,0,0,0-1.6.668A3.684,3.684,0,0,0-9.553-7.406a5.356,5.356,0,0,0-.581,1.986h-2.144a6.536,6.536,0,0,1,.738-2.759A5.6,5.6,0,0,1-9.9-10.043,6.779,6.779,0,0,1-7.585-11.1a11.333,11.333,0,0,1,2.794-.335,10.793,10.793,0,0,1,2.583.3A5.981,5.981,0,0,1-.1-10.183a4.415,4.415,0,0,1,1.406,1.74,6.284,6.284,0,0,1,.51,2.671V4.14q0,1.231.439,1.564t1.775-.158V7.2c-.165.048-.4.117-.721.211a3.277,3.277,0,0,1-.931.14,4.216,4.216,0,0,1-.949-.105A1.634,1.634,0,0,1,.587,7.11a2.06,2.06,0,0,1-.51-.632,2.583,2.583,0,0,1-.263-.809,5.816,5.816,0,0,1-.071-.931A9.156,9.156,0,0,1-3.315,6.986a8.99,8.99,0,0,1-3.725.773,8.32,8.32,0,0,1-2.3-.316,5.568,5.568,0,0,1-1.951-.984,4.868,4.868,0,0,1-1.335-1.634,5.008,5.008,0,0,1-.492-2.3q0-4.639,6.362-5.483Zm3.55,1.054A10.339,10.339,0,0,1-3-1.554q-1.371.176-2.741.281A7.718,7.718,0,0,0-9.518-.183a3.119,3.119,0,0,0-1.354,2.776,3.01,3.01,0,0,0,.334,1.459,3.078,3.078,0,0,0,.878,1.019,3.7,3.7,0,0,0,1.265.6,5.587,5.587,0,0,0,1.459.193,9.55,9.55,0,0,0,2.46-.316,6.66,6.66,0,0,0,2.127-.966A4.95,4.95,0,0,0-.854,2.927,4.777,4.777,0,0,0-.292.555Z" transform="translate(167.837 105.702)" fill="#696976"/>
          <path id="Path_9" data-name="Path 9" d="M-6.054,0h2.109V25.306H-6.054v-3.2h-.07a5.71,5.71,0,0,1-1.177,1.6,7.12,7.12,0,0,1-1.581,1.143,8.547,8.547,0,0,1-1.776.7,6.9,6.9,0,0,1-1.792.245,8.688,8.688,0,0,1-3.761-.737,7.008,7.008,0,0,1-2.548-2.022A8.219,8.219,0,0,1-20.217,20a14.851,14.851,0,0,1-.458-3.76,13.52,13.52,0,0,1,.491-3.655,9.064,9.064,0,0,1,1.494-3.076A7.394,7.394,0,0,1-16.158,7.4a7.743,7.743,0,0,1,3.6-.791,8.391,8.391,0,0,1,3.708.861,6.526,6.526,0,0,1,2.794,2.548Zm0,16.133A10.038,10.038,0,0,0-6.475,13.2a7.607,7.607,0,0,0-1.213-2.425A5.98,5.98,0,0,0-9.621,9.121,5.37,5.37,0,0,0-12.2,8.505a5.872,5.872,0,0,0-2.847.651,5.611,5.611,0,0,0-1.968,1.775,7.68,7.68,0,0,0-1.125,2.618,11.881,11.881,0,0,0-.281,3.216,8.94,8.94,0,0,0,.475,3.04,6.461,6.461,0,0,0,1.318,2.232,5.617,5.617,0,0,0,1.968,1.388,6.267,6.267,0,0,0,2.46.475,5.667,5.667,0,0,0,2.636-.6,5.539,5.539,0,0,0,1.933-1.634,7.516,7.516,0,0,0,1.177-2.461,11.245,11.245,0,0,0,.4-3.075" transform="translate(194.054 87.664)" fill="#696976"/>
          <path id="Path_10" data-name="Path 10" d="M-3.842-5.981c.4-.046.872-.117,1.424-.211a5.34,5.34,0,0,0,1.353-.387A1.123,1.123,0,0,0-.414-7.4,5.275,5.275,0,0,0-.292-8.476,3.6,3.6,0,0,0-1.328-11.13a4.84,4.84,0,0,0-3.5-1.037,9.759,9.759,0,0,0-2,.193,4.358,4.358,0,0,0-1.6.668A3.684,3.684,0,0,0-9.553-10.04a5.343,5.343,0,0,0-.58,1.986h-2.145a6.536,6.536,0,0,1,.738-2.759A5.6,5.6,0,0,1-9.9-12.677a6.777,6.777,0,0,1,2.32-1.054,11.328,11.328,0,0,1,2.793-.335,10.793,10.793,0,0,1,2.583.3A5.981,5.981,0,0,1-.1-12.817a4.4,4.4,0,0,1,1.406,1.74,6.273,6.273,0,0,1,.51,2.671V1.506q0,1.231.439,1.564t1.776-.158V4.563c-.165.048-.405.117-.722.211a3.274,3.274,0,0,1-.931.14,4.22,4.22,0,0,1-.949-.105,1.629,1.629,0,0,1-.843-.334,2.062,2.062,0,0,1-.511-.632,2.583,2.583,0,0,1-.263-.809A5.9,5.9,0,0,1-.257,2.1,9.149,9.149,0,0,1-3.315,4.352a8.99,8.99,0,0,1-3.725.773,8.316,8.316,0,0,1-2.3-.316,5.568,5.568,0,0,1-1.951-.984,4.868,4.868,0,0,1-1.335-1.634,5.008,5.008,0,0,1-.492-2.3q0-4.639,6.362-5.483Zm3.55,1.054A10.332,10.332,0,0,1-3-4.188q-1.371.176-2.741.281a7.72,7.72,0,0,0-3.778,1.09A3.119,3.119,0,0,0-10.871-.041a3.01,3.01,0,0,0,.333,1.459,3.078,3.078,0,0,0,.878,1.019,3.7,3.7,0,0,0,1.265.6,5.587,5.587,0,0,0,1.459.193,9.546,9.546,0,0,0,2.46-.316,6.66,6.66,0,0,0,2.127-.966A4.959,4.959,0,0,0-.853.293,4.784,4.784,0,0,0-.292-2.08ZM-6.971-15.541l3.9-4.886H-.363l-4.815,4.886Z" transform="translate(206.392 108.337)" fill="#696976"/>
          <path id="Path_11" data-name="Path 11" d="M-5.7-2.576A6.125,6.125,0,0,0-7.636-5.757,5.258,5.258,0,0,0-11.117-6.9a5.477,5.477,0,0,0-2.776.668,5.627,5.627,0,0,0-1.9,1.775,8,8,0,0,0-1.09,2.5A11.323,11.323,0,0,0-17.233.834,11.826,11.826,0,0,0-16.9,3.645a7.487,7.487,0,0,0,1.072,2.46,5.5,5.5,0,0,0,1.9,1.74,5.662,5.662,0,0,0,2.812.65,5.383,5.383,0,0,0,3.779-1.3A6.041,6.041,0,0,0-5.529,3.61h2.25a10.621,10.621,0,0,1-.9,2.759A7.3,7.3,0,0,1-5.756,8.514,6.817,6.817,0,0,1-8.059,9.9a8.831,8.831,0,0,1-3.058.492,8.838,8.838,0,0,1-3.761-.738,7.1,7.1,0,0,1-2.6-2.021,8.489,8.489,0,0,1-1.513-3.04A13.891,13.891,0,0,1-19.481.834,12.067,12.067,0,0,1-18.937-2.8a9.512,9.512,0,0,1,1.6-3.076,7.739,7.739,0,0,1,2.619-2.127,7.883,7.883,0,0,1,3.6-.791A8.121,8.121,0,0,1-6-7.286a7.018,7.018,0,0,1,2.443,4.71Z" transform="translate(231.1 103.069)" fill="#696976"/>
        </g>
        <path id="Path_13" data-name="Path 13" d="M326.671-159.505h2.32v3.129h-2.32Zm.105,7.1h2.109V-134.2h-2.109Z" transform="translate(-95.651 247.169)" fill="#696976"/>
        <g id="Group_3" data-name="Group 3" clip-path="url(#clip-path)">
          <path id="Path_14" data-name="Path 14" d="M-3.842-3.347q.6-.069,1.424-.211a5.331,5.331,0,0,0,1.353-.387,1.119,1.119,0,0,0,.651-.826A5.233,5.233,0,0,0-.291-5.842,3.6,3.6,0,0,0-1.329-8.5a4.838,4.838,0,0,0-3.5-1.037,9.754,9.754,0,0,0-2,.193,4.358,4.358,0,0,0-1.6.668A3.684,3.684,0,0,0-9.553-7.406a5.343,5.343,0,0,0-.58,1.986h-2.145a6.547,6.547,0,0,1,.738-2.759A5.61,5.61,0,0,1-9.9-10.043,6.779,6.779,0,0,1-7.585-11.1a11.338,11.338,0,0,1,2.794-.335,10.8,10.8,0,0,1,2.584.3A5.983,5.983,0,0,1-.1-10.183a4.415,4.415,0,0,1,1.406,1.74,6.284,6.284,0,0,1,.51,2.671V4.14q0,1.231.439,1.564t1.775-.158V7.2l-.721.211a3.274,3.274,0,0,1-.931.14,4.216,4.216,0,0,1-.949-.105A1.636,1.636,0,0,1,.587,7.11a2.06,2.06,0,0,1-.51-.632,2.583,2.583,0,0,1-.263-.809,5.9,5.9,0,0,1-.071-.931A9.148,9.148,0,0,1-3.315,6.986a8.989,8.989,0,0,1-3.724.773,8.329,8.329,0,0,1-2.3-.316,5.568,5.568,0,0,1-1.951-.984,4.868,4.868,0,0,1-1.335-1.634,5.008,5.008,0,0,1-.492-2.3q0-4.639,6.362-5.483ZM-.291-2.293A10.352,10.352,0,0,1-3-1.554q-1.371.176-2.741.281A7.713,7.713,0,0,0-9.517-.183a3.118,3.118,0,0,0-1.354,2.776,3.01,3.01,0,0,0,.333,1.459,3.072,3.072,0,0,0,.879,1.019,3.691,3.691,0,0,0,1.265.6,5.582,5.582,0,0,0,1.458.193,9.555,9.555,0,0,0,2.461-.316,6.656,6.656,0,0,0,2.126-.966,4.959,4.959,0,0,0,1.5-1.652A4.784,4.784,0,0,0-.291.555Z" transform="translate(249.588 105.702)" fill="#696976"/>
        </g>
      </g>
    </g>
  </g>
</svg>
