<?xml version="1.0" encoding="UTF-8" standalone="no"?>
<!DOCTYPE svg PUBLIC "-//W3C//DTD SVG 1.1//EN" "http://www.w3.org/Graphics/SVG/1.1/DTD/svg11.dtd">
<svg xmlns="http://www.w3.org/2000/svg" xmlns:xlink="http://www.w3.org/1999/xlink" version="1.1" width="419.527pt" height="226.771pt" viewBox="0 0 419.527 226.771">
<g enable-background="new">
<g id="Layer-1" data-name="Layer">
<clipPath id="cp0">
<path transform="matrix(1,0,0,-1,0,226.771)" d="M 0 226.771 L 419.527 226.771 L 419.527 0 L 0 0 Z "/>
</clipPath>
<g clip-path="url(#cp0)">
<path transform="matrix(1,0,0,-1,226.1836,33.36769)" d="M 0 0 C -5.646 0 -11.783 -.795 -18.283 -2.459 C -24.781 -.795 -30.92 0 -36.564 0 C -51.607 .003 -63.143 -5.647 -68.6 -15.654 C -74.324 -26.158 -74.205 -43.885 -71.973 -52.709 C -63.199 -87.445 -30.203 -87.1 -18.705 -94.807 L -17.852 -94.807 C -6.363 -87.1 26.637 -87.445 35.412 -52.709 C 37.635 -43.885 37.756 -26.158 32.035 -15.654 C 26.584 -5.647 15.037 0 0 0 " fill="#565757"/>
<path transform="matrix(1,0,0,-1,207.9004,119.7856)" d="M 0 0 C -3.096 1.474 -6.66 2.638 -10.59 3.928 C -17.48 6.195 -25.295 8.761 -31.904 13.519 C -39.213 18.757 -43.943 25.974 -46.361 35.566 C -48.281 43.17 -48.191 58.869 -43.674 67.149 C -41.73 70.728 -38.666 73.551 -34.574 75.552 C -30.088 77.749 -24.615 78.858 -18.295 78.858 C -13.15 78.858 -7.635 78.11 -1.873 76.638 L 0 76.158 C 0 76.158 1.904 63.259 1.904 42.002 C 1.904 16.487 0 0 0 0 " fill="#ffffff"/>
<path transform="matrix(1,0,0,-1,262.7754,37.966295)" d="M 0 0 C .693 0 1.07 .19 1.07 .818 C 1.07 1.383 .789 1.596 .176 1.596 L -.402 1.596 L -.402 0 Z M 1.088 -1.963 C .883 -1.754 .441 -1.114 .266 -.887 C .184 -.896 .053 -.896 -.043 -.896 L -.402 -.896 L -.402 -2.7 L -1.543 -2.7 L -1.543 2.493 L .303 2.493 C 1.391 2.493 2.266 2.121 2.266 .858 C 2.266 .136 1.889 -.318 1.369 -.548 C 1.826 -1.125 2.145 -1.718 2.879 -1.963 L 2.668 -2.761 C 2.074 -2.722 1.564 -2.509 1.088 -1.963 M 3.988 -.214 C 3.988 2.053 2.654 3.724 .303 3.724 C -2.137 3.724 -3.42 2.053 -3.42 -.19 C -3.42 -2.349 -2.189 -4.184 .229 -4.184 C 2.742 -4.184 3.988 -2.473 3.988 -.214 M -4.455 -.205 C -4.455 2.79 -2.455 4.582 .412 4.582 C 3.475 4.582 5.023 2.523 5.023 -.229 C 5.023 -3.14 3.191 -5.039 .184 -5.039 C -2.768 -5.039 -4.455 -3.071 -4.455 -.205 " fill="#565757"/>
<path transform="matrix(1,0,0,-1,101.3389,156.74069)" d="M 0 0 C -.904 -.393 -1.612 -1.494 -1.612 -2.713 L -1.612 -24.851 L -5.859 -25.991 L -21.47 -4.285 L -21.745 -4.285 L -21.509 -7.432 L -21.509 -14.352 L -21.392 -20.447 C -21.392 -21.391 -21.313 -21.666 -20.447 -21.941 L -17.105 -22.924 C -17.105 -23.278 -17.145 -24.654 -17.302 -25.087 L -28.823 -25.087 C -28.94 -24.497 -29.02 -23.514 -28.98 -23.003 L -26.975 -22.413 C -25.756 -22.099 -25.127 -20.486 -25.087 -18.992 L -25.009 -14.352 L -25.009 -2.241 C -25.009 -1.376 -25.48 -.59 -26.149 -.235 L -28.548 .826 C -28.548 1.18 -28.587 2.281 -28.469 2.714 L -19.779 2.714 L -5.072 -17.419 L -4.797 -17.419 L -5.072 -13.29 L -5.072 -2.752 C -5.072 -1.533 -5.741 -.629 -6.527 -.235 L -9.005 .826 C -9.005 1.18 -9.005 2.281 -8.848 2.714 L 1.927 2.714 C 2.006 2.124 2.084 1.416 2.084 .905 Z " fill="#565656"/>
<path transform="matrix(1,0,0,-1,116.166,172.43019)" d="M 0 0 C -.354 -.039 -1.928 -.196 -3.186 -.432 C -5.506 -.904 -6.921 -1.769 -6.921 -3.538 C -6.921 -4.679 -6.174 -5.544 -4.522 -5.544 C -2.871 -5.544 -.63 -4.601 0 -4.364 Z M 3.893 -9.712 C .982 -9.712 .274 -8.611 .117 -6.33 C -1.022 -7.51 -3.579 -9.751 -6.725 -9.751 C -10.027 -9.751 -12.348 -8.179 -12.348 -4.797 C -12.348 -.117 -8.18 1.573 -4.129 2.163 C -2.399 2.399 -.669 2.596 0 2.635 L 0 5.112 C 0 7.314 -.983 8.258 -4.443 8.258 C -5.859 8.258 -7.865 7.982 -10.027 7.433 L -10.972 11.168 C -8.376 12.151 -5.859 12.583 -3.382 12.583 C -.079 12.623 5.308 12.466 5.308 6.646 L 5.308 1.338 L 5.583 -5.858 L 8.887 -5.858 L 9.161 -7.55 C 7.903 -8.689 5.426 -9.712 3.893 -9.712 " fill="#565656"/>
<path transform="matrix(1,0,0,-1,141.333,163.58249)" d="M 0 0 C -.865 .197 -1.966 .433 -3.539 .433 C -7.628 .433 -8.847 -3.027 -8.847 -7.864 C -8.847 -12.189 -7.077 -14.155 -3.972 -14.155 C -2.517 -14.155 -1.337 -13.763 -.157 -13.212 L 0 -7.235 Z M 2.438 -18.56 C .433 -18.56 -.117 -16.751 -.117 -15.335 C -1.455 -16.869 -3.264 -18.521 -5.938 -18.521 C -10.184 -18.521 -14.47 -16.712 -14.47 -8.336 C -14.47 -1.101 -9.595 3.382 -3.421 3.382 C -1.927 3.382 -.943 3.304 0 3.186 L 0 8.415 L -3.656 8.415 L -3.656 10.971 C -1.533 11.403 1.416 11.797 3.264 11.797 C 4.798 11.797 5.309 11.403 5.309 9.831 L 5.309 -7.274 L 5.466 -14.667 L 8.651 -14.667 L 9.044 -16.633 C 7.354 -17.576 5.348 -18.56 2.438 -18.56 " fill="#565656"/>
<path transform="matrix(1,0,0,-1,168.0742,151.9429)" d="M 0 0 C -3.343 -2.478 -5.977 -4.247 -9.477 -5.819 L -10.813 -3.775 C -7.511 -1.455 -5.388 .472 -2.753 3.185 Z M -4.05 -20.487 C -4.404 -20.526 -5.977 -20.684 -7.235 -20.919 C -9.556 -21.392 -10.971 -22.256 -10.971 -24.025 C -10.971 -25.166 -10.224 -26.031 -8.572 -26.031 C -6.921 -26.031 -4.68 -25.088 -4.05 -24.852 Z M -.157 -30.199 C -3.067 -30.199 -3.775 -29.099 -3.933 -26.817 C -5.072 -27.997 -7.629 -30.238 -10.774 -30.238 C -14.077 -30.238 -16.397 -28.666 -16.397 -25.284 C -16.397 -20.604 -12.229 -18.914 -8.179 -18.324 C -6.449 -18.088 -4.719 -17.892 -4.05 -17.853 L -4.05 -15.375 C -4.05 -13.173 -5.033 -12.229 -8.494 -12.229 C -9.909 -12.229 -11.915 -12.505 -14.077 -13.055 L -15.021 -9.319 C -12.426 -8.336 -9.909 -7.904 -7.432 -7.904 C -4.129 -7.864 1.258 -8.021 1.258 -13.842 L 1.258 -19.149 L 1.533 -26.346 L 4.837 -26.346 L 5.111 -28.037 C 3.854 -29.177 1.376 -30.199 -.157 -30.199 " fill="#565656"/>
<path transform="matrix(1,0,0,-1,190.7646,166.8853)" d="M 0 0 C -1.77 1.966 -3.382 3.696 -5.662 3.696 C -8.376 3.696 -10.578 1.533 -10.578 -3.696 C -10.578 -8.533 -8.493 -11.167 -4.05 -11.167 C -2.438 -11.167 -.551 -10.813 1.101 -10.499 L 2.005 -13.33 C .196 -14.51 -2.163 -15.414 -5.741 -15.414 C -13.33 -15.414 -16.083 -11.442 -16.083 -5.229 C -16.083 2.359 -11.954 7.038 -4.443 7.038 C -1.69 7.038 2.28 6.291 2.28 3.303 C 2.28 2.084 1.573 .668 0 0 " fill="#565656"/>
<path transform="matrix(1,0,0,-1,198.041,153.35889)" d="M 0 0 C 0 .826 2.714 3.461 3.461 3.461 C 4.09 3.461 6.96 .708 6.96 0 C 6.96 -.55 4.247 -3.46 3.461 -3.46 C 2.674 -3.46 0 -.668 0 0 M -2.674 -26.267 L -.275 -25.52 C .433 -25.323 .787 -24.615 .787 -23.789 L .904 -17.733 L .904 -9.987 L -2.713 -9.987 L -2.713 -7.432 C -.59 -6.96 2.517 -6.566 4.365 -6.566 C 5.623 -6.566 6.253 -6.92 6.253 -8.297 L 6.253 -17.733 L 6.331 -24.064 C 6.37 -25.048 6.567 -25.362 7 -25.48 L 9.909 -26.188 C 9.909 -26.936 9.87 -27.84 9.674 -28.469 L -2.517 -28.469 C -2.635 -27.918 -2.674 -27.171 -2.674 -26.267 " fill="#565656"/>
<path transform="matrix(1,0,0,-1,221.6748,172.43019)" d="M 0 0 C -.354 -.039 -1.927 -.196 -3.186 -.432 C -5.506 -.904 -6.921 -1.769 -6.921 -3.538 C -6.921 -4.679 -6.174 -5.544 -4.522 -5.544 C -2.871 -5.544 -.63 -4.601 0 -4.364 Z M 3.893 -9.712 C .982 -9.712 .274 -8.611 .117 -6.33 C -1.022 -7.51 -3.579 -9.751 -6.725 -9.751 C -10.027 -9.751 -12.348 -8.179 -12.348 -4.797 C -12.348 -.117 -8.18 1.573 -4.129 2.163 C -2.399 2.399 -.669 2.596 0 2.635 L 0 5.112 C 0 7.314 -.983 8.258 -4.444 8.258 C -5.859 8.258 -7.865 7.982 -10.027 7.433 L -10.972 11.168 C -8.376 12.151 -5.859 12.583 -3.382 12.583 C -.079 12.623 5.308 12.466 5.308 6.646 L 5.308 1.338 L 5.583 -5.858 L 8.887 -5.858 L 9.161 -7.55 C 7.903 -8.689 5.426 -9.712 3.893 -9.712 " fill="#565656"/>
<path transform="matrix(1,0,0,-1,265.1279,181.82759)" d="M 0 0 L -22.413 0 C -22.57 .786 -22.61 1.651 -22.57 2.32 L -20.526 2.831 C -19.622 3.067 -18.874 3.657 -18.874 4.522 L -18.757 10.971 L -18.757 22.688 C -18.757 23.986 -19.229 24.419 -19.857 24.655 L -22.335 25.677 L -22.335 26.66 C -22.296 27.093 -22.296 27.446 -22.139 27.801 L -.551 27.801 L -.551 21.352 C -1.219 21.233 -2.438 21.194 -3.027 21.194 C -3.539 23.672 -4.522 24.419 -6.252 24.419 L -13.251 24.615 L -13.251 15.571 L -2.595 15.769 L -2.595 12.15 L -13.251 12.347 L -13.251 10.932 L -13.055 3.186 L -7.117 3.343 C -4.286 3.421 -2.359 4.64 -1.416 7.235 L .983 6.724 Z " fill="#565656"/>
<path transform="matrix(1,0,0,-1,278.7744,182.2603)" d="M 0 0 C -2.792 0 -6.764 .629 -9.398 2.084 L -8.809 9.005 L -6.253 9.005 C -5.938 5.27 -2.871 3.146 .786 3.146 C 3.735 3.146 5.938 4.09 5.938 6.646 C 5.938 8.809 3.303 9.83 .117 11.168 C -3.696 12.779 -8.219 14.942 -8.219 19.818 C -8.219 24.813 -3.343 28.548 2.005 28.548 C 4.561 28.548 8.218 27.958 10.498 26.817 L 10.498 20.684 L 8.297 20.684 C 7.628 23.711 4.679 25.284 1.809 25.284 C -.865 25.284 -3.067 24.262 -3.067 21.941 C -3.067 19.739 -.865 18.796 2.988 17.184 C 7.077 15.453 11.639 13.487 11.639 8.415 C 11.639 2.517 5.465 0 0 0 " fill="#565656"/>
<path transform="matrix(1,0,0,-1,315.8564,181.82759)" d="M 0 0 L -22.413 0 C -22.57 .786 -22.61 1.651 -22.57 2.32 L -20.526 2.831 C -19.622 3.067 -18.874 3.657 -18.874 4.522 L -18.757 10.971 L -18.757 22.688 C -18.757 23.986 -19.229 24.419 -19.857 24.655 L -22.335 25.677 L -22.335 26.66 C -22.296 27.093 -22.296 27.446 -22.139 27.801 L -.551 27.801 L -.551 21.352 C -1.219 21.233 -2.438 21.194 -3.027 21.194 C -3.539 23.672 -4.522 24.419 -6.252 24.419 L -13.251 24.615 L -13.251 15.571 L -2.595 15.769 L -2.595 12.15 L -13.251 12.347 L -13.251 10.932 L -13.055 3.186 L -7.117 3.343 C -4.286 3.421 -2.359 4.64 -1.416 7.235 L .983 6.724 Z " fill="#565656"/>
<path transform="matrix(1,0,0,-1,344.1699,161.3013)" d="M 0 0 C -.511 -.157 -1.809 -.197 -2.241 -.118 C -2.713 2.319 -3.774 3.774 -5.938 3.893 L -10.499 4.05 L -10.499 -9.791 L -10.302 -16.044 C -10.302 -16.948 -10.224 -17.302 -9.477 -17.459 L -5.977 -18.167 C -5.977 -18.521 -6.016 -20.094 -6.134 -20.526 L -20.251 -20.526 C -20.368 -19.937 -20.447 -18.679 -20.408 -18.167 L -17.734 -17.42 C -16.829 -17.145 -16.161 -15.769 -16.122 -14.707 L -16.004 -9.791 L -16.004 4.05 L -20.919 3.893 C -22.846 3.813 -23.75 2.162 -24.183 -.118 C -24.537 -.236 -25.952 -.157 -26.464 0 L -26.464 7.274 L 0 7.274 Z " fill="#565656"/>
</g>
</g>
</g>
</svg>
