<?xml version="1.0" encoding="UTF-8" standalone="no"?>
<!DOCTYPE svg PUBLIC "-//W3C//DTD SVG 1.1//EN" "http://www.w3.org/Graphics/SVG/1.1/DTD/svg11.dtd">
<svg xmlns="http://www.w3.org/2000/svg" xmlns:xlink="http://www.w3.org/1999/xlink" version="1.1" width="566.929pt" height="283.465pt" viewBox="0 0 566.929 283.465">
    <g enable-background="new">
        <g id="Layer-1" data-name="Layer">
            <clipPath id="cp0">
                <path transform="matrix(1,0,0,-1,0,283.465)" d="M 0 0 L 566.929 0 L 566.929 283.465 L 0 283.465 Z " />
            </clipPath>
            <g clip-path="url(#cp0)">
                <path transform="matrix(1,0,0,-1,434.3418,159.7443)" d="M 0 0 L 0 17.559 L 21.186 17.559 L 21.186 0 L 24.567 0 L 24.567 35.809 L 21.186 35.809 L 21.186 20.443 L 0 20.443 L 0 35.809 L -3.384 35.809 L -3.384 0 Z M -28.494 18.701 L -28.494 32.926 L -19.744 32.926 C -16.524 32.926 -14.184 32.346 -12.705 31.186 C -11.231 30.023 -10.494 28.316 -10.494 26.063 C -10.494 24.539 -10.734 23.303 -11.217 22.355 C -11.695 21.412 -12.376 20.668 -13.256 20.119 C -14.133 19.572 -15.201 19.199 -16.458 19 C -17.719 18.799 -19.144 18.701 -20.735 18.701 Z M -28.494 0 L -28.494 15.82 L -20.835 15.82 C -19.18 15.82 -17.526 15.967 -15.889 16.262 C -14.248 16.563 -12.78 17.086 -11.489 17.832 C -10.195 18.576 -9.142 19.598 -8.331 20.889 C -7.519 22.182 -7.113 23.826 -7.113 25.813 C -7.113 27.143 -7.285 28.406 -7.635 29.617 C -7.981 30.826 -8.595 31.9 -9.474 32.828 C -10.354 33.756 -11.55 34.482 -13.054 35.016 C -14.562 35.543 -16.476 35.809 -18.795 35.809 L -31.877 35.809 L -31.877 0 Z M -35.805 0 L -35.805 2.885 L -56.743 2.885 L -56.743 17.111 L -38.29 17.111 L -38.29 19.994 L -56.743 19.994 L -56.743 32.926 L -36.303 32.926 L -36.303 35.809 L -60.122 35.809 L -60.122 0 Z " fill="#696976" />
                <path transform="matrix(1,0,0,-1,129.2813,140.6564)" d="M 0 0 C 4.095 0 7.426 3.33 7.426 7.426 C 7.426 11.52 4.095 14.851 0 14.851 C -9.863 14.851 -19.272 1.846 -21.262 -1.076 C -19.896 -3.08 -15.026 -9.842 -8.908 -13.881 C -9.33 -12.477 -9.576 -11.037 -9.576 -9.576 C -9.576 -4.297 -5.28 0 0 0 " fill="#696976" />
                <path transform="matrix(1,0,0,-1,167.5469,141.73259)" d="M 0 0 C -1.366 2.006 -6.236 8.766 -12.353 12.805 C -11.93 11.4 -11.686 9.962 -11.686 8.502 C -11.686 3.222 -15.981 -1.076 -21.262 -1.076 C -25.356 -1.076 -28.688 -4.406 -28.688 -8.5 C -28.688 -12.596 -25.356 -15.928 -21.262 -15.928 C -11.398 -15.928 -1.989 -2.922 0 0 " fill="#696976" />
                <path transform="matrix(1,0,0,-1,153.7104,133.23059)" d="M 0 0 C 0 9.865 -13.006 19.273 -15.928 21.262 C -17.932 19.896 -24.692 15.027 -28.732 8.91 C -27.328 9.332 -25.89 9.578 -24.429 9.578 C -19.148 9.578 -14.852 5.281 -14.852 0 C -14.852 -4.096 -11.52 -7.426 -7.425 -7.426 C -3.331 -7.426 0 -4.096 0 0 " fill="#696976" />
                <path transform="matrix(1,0,0,-1,137.7832,171.49619)" d="M 0 0 C 2.005 1.365 8.766 6.234 12.805 12.354 C 11.4 11.93 9.963 11.687 8.502 11.687 C 3.221 11.687 -1.075 15.982 -1.075 21.264 C -1.075 25.357 -4.407 28.688 -8.502 28.688 C -12.596 28.688 -15.926 25.357 -15.926 21.264 C -15.926 11.398 -2.921 1.988 0 0 " fill="#696976" />
            </g>
            <path transform="matrix(1,0,0,-1,189.75,128.5324)" d="M 0 0 L -.1 0 L -.1 -31.212 L -3.479 -31.212 L -3.479 4.572 L .348 4.572 L 21.023 -26.689 L 21.122 -26.689 L 21.122 4.572 L 24.501 4.572 L 24.501 -31.212 L 20.575 -31.212 Z " fill="#696976" />
            <clipPath id="cp1">
                <path transform="matrix(1,0,0,-1,0,283.465)" d="M 0 0 L 566.929 0 L 566.929 283.465 L 0 283.465 Z " />
            </clipPath>
            <g clip-path="url(#cp1)">
                <path transform="matrix(1,0,0,-1,231.895,144.7345)" d="M 0 0 C .563 .065 1.233 .165 2.013 .298 C 2.791 .43 3.429 .612 3.926 .845 C 4.423 1.076 4.729 1.466 4.846 2.013 C 4.961 2.56 5.02 3.063 5.02 3.528 C 5.02 5.052 4.53 6.303 3.554 7.28 C 2.575 8.258 .927 8.747 -1.392 8.747 C -2.419 8.747 -3.363 8.655 -4.225 8.474 C -5.087 8.291 -5.84 7.977 -6.486 7.529 C -7.132 7.082 -7.662 6.485 -8.076 5.74 C -8.491 4.994 -8.765 4.058 -8.897 2.932 L -11.929 2.932 C -11.829 4.455 -11.48 5.756 -10.885 6.833 C -10.288 7.91 -9.518 8.788 -8.573 9.468 C -7.629 10.146 -6.536 10.644 -5.293 10.958 C -4.051 11.273 -2.733 11.431 -1.342 11.431 C -.05 11.431 1.168 11.289 2.311 11.008 C 3.454 10.727 4.448 10.279 5.293 9.666 C 6.138 9.053 6.8 8.232 7.281 7.206 C 7.761 6.179 8.002 4.92 8.002 3.429 L 8.002 -10.587 C 8.002 -11.747 8.208 -12.483 8.623 -12.798 C 9.037 -13.113 9.873 -13.039 11.133 -12.574 L 11.133 -14.91 C 10.9 -14.978 10.561 -15.076 10.113 -15.209 C 9.666 -15.341 9.227 -15.407 8.797 -15.407 C 8.332 -15.407 7.885 -15.357 7.455 -15.258 C 6.958 -15.191 6.561 -15.034 6.262 -14.786 C 5.964 -14.538 5.723 -14.239 5.541 -13.892 C 5.358 -13.544 5.234 -13.163 5.169 -12.748 C 5.102 -12.335 5.069 -11.896 5.069 -11.432 C 3.81 -12.823 2.368 -13.884 .745 -14.612 C -.879 -15.341 -2.635 -15.705 -4.522 -15.705 C -5.649 -15.705 -6.734 -15.557 -7.778 -15.258 C -8.822 -14.96 -9.741 -14.496 -10.537 -13.866 C -11.332 -13.237 -11.962 -12.468 -12.425 -11.556 C -12.89 -10.645 -13.121 -9.56 -13.121 -8.3 C -13.121 -3.927 -10.123 -1.342 -4.125 -.547 Z M 5.02 -1.491 C 3.76 -2.021 2.484 -2.37 1.192 -2.535 C -.1 -2.701 -1.392 -2.833 -2.684 -2.933 C -4.971 -3.099 -6.752 -3.612 -8.026 -4.474 C -9.303 -5.335 -9.94 -6.644 -9.94 -8.399 C -9.94 -9.195 -9.783 -9.883 -9.468 -10.462 C -9.153 -11.042 -8.739 -11.523 -8.226 -11.903 C -7.712 -12.285 -7.116 -12.566 -6.437 -12.748 C -5.758 -12.931 -5.069 -13.021 -4.374 -13.021 C -3.181 -13.021 -2.022 -12.873 -.895 -12.574 C .231 -12.276 1.233 -11.821 2.112 -11.208 C 2.989 -10.595 3.694 -9.816 4.225 -8.872 C 4.754 -7.928 5.02 -6.81 5.02 -5.517 Z " fill="#696976" />
                <path transform="matrix(1,0,0,-1,265.8394,123.9601)" d="M 0 0 L 2.982 0 L 2.982 -35.784 L 0 -35.784 L 0 -31.262 L -.099 -31.262 C -.53 -32.123 -1.085 -32.877 -1.764 -33.522 C -2.443 -34.169 -3.189 -34.708 -4 -35.138 C -4.813 -35.569 -5.65 -35.899 -6.511 -36.132 C -7.372 -36.363 -8.217 -36.479 -9.045 -36.479 C -11.133 -36.479 -12.905 -36.132 -14.363 -35.437 C -15.821 -34.74 -17.022 -33.788 -17.966 -32.578 C -18.91 -31.369 -19.599 -29.937 -20.028 -28.279 C -20.46 -26.623 -20.675 -24.851 -20.675 -22.962 C -20.675 -21.173 -20.443 -19.45 -19.98 -17.793 C -19.516 -16.137 -18.812 -14.687 -17.867 -13.444 C -16.923 -12.201 -15.73 -11.208 -14.288 -10.462 C -12.847 -9.717 -11.15 -9.344 -9.194 -9.344 C -7.372 -9.344 -5.624 -9.75 -3.951 -10.562 C -2.278 -11.374 -.961 -12.574 0 -14.165 Z M 0 -22.813 C 0 -21.354 -.198 -19.972 -.596 -18.662 C -.993 -17.354 -1.566 -16.211 -2.311 -15.233 C -3.057 -14.256 -3.968 -13.478 -5.044 -12.897 C -6.121 -12.318 -7.339 -12.027 -8.697 -12.027 C -10.255 -12.027 -11.597 -12.334 -12.723 -12.947 C -13.85 -13.561 -14.777 -14.396 -15.506 -15.457 C -16.235 -16.518 -16.766 -17.752 -17.097 -19.159 C -17.428 -20.568 -17.561 -22.084 -17.494 -23.707 C -17.494 -25.331 -17.271 -26.764 -16.823 -28.006 C -16.376 -29.249 -15.755 -30.301 -14.959 -31.162 C -14.164 -32.024 -13.237 -32.678 -12.176 -33.125 C -11.116 -33.572 -9.957 -33.796 -8.697 -33.796 C -7.306 -33.796 -6.064 -33.515 -4.97 -32.951 C -3.876 -32.389 -2.965 -31.618 -2.236 -30.641 C -1.508 -29.663 -.952 -28.503 -.571 -27.161 C -.191 -25.819 0 -24.37 0 -22.813 " fill="#696976" />
                <path transform="matrix(1,0,0,-1,286.4141,144.7345)" d="M 0 0 C .563 .065 1.233 .165 2.014 .298 C 2.791 .43 3.43 .612 3.927 .845 C 4.423 1.076 4.729 1.466 4.847 2.013 C 4.961 2.56 5.02 3.063 5.02 3.528 C 5.02 5.052 4.53 6.303 3.555 7.28 C 2.575 8.258 .928 8.747 -1.392 8.747 C -2.418 8.747 -3.363 8.655 -4.225 8.474 C -5.087 8.291 -5.84 7.977 -6.486 7.529 C -7.132 7.082 -7.662 6.485 -8.076 5.74 C -8.491 4.994 -8.765 4.058 -8.896 2.932 L -11.929 2.932 C -11.829 4.455 -11.48 5.756 -10.885 6.833 C -10.288 7.91 -9.518 8.788 -8.573 9.468 C -7.629 10.146 -6.536 10.644 -5.292 10.958 C -4.051 11.273 -2.732 11.431 -1.342 11.431 C -.05 11.431 1.168 11.289 2.311 11.008 C 3.454 10.727 4.448 10.279 5.293 9.666 C 6.139 9.053 6.801 8.232 7.281 7.206 C 7.762 6.179 8.002 4.92 8.002 3.429 L 8.002 -10.587 C 8.002 -11.747 8.208 -12.483 8.623 -12.798 C 9.037 -13.113 9.873 -13.039 11.134 -12.574 L 11.134 -14.91 C 10.9 -14.978 10.561 -15.076 10.113 -15.209 C 9.666 -15.341 9.228 -15.407 8.797 -15.407 C 8.332 -15.407 7.886 -15.357 7.455 -15.258 C 6.958 -15.191 6.561 -15.034 6.263 -14.786 C 5.964 -14.538 5.724 -14.239 5.541 -13.892 C 5.358 -13.544 5.234 -13.163 5.169 -12.748 C 5.103 -12.335 5.069 -11.896 5.069 -11.432 C 3.811 -12.823 2.368 -13.884 .745 -14.612 C -.879 -15.341 -2.635 -15.705 -4.522 -15.705 C -5.65 -15.705 -6.734 -15.557 -7.778 -15.258 C -8.822 -14.96 -9.741 -14.496 -10.537 -13.866 C -11.332 -13.237 -11.962 -12.468 -12.425 -11.556 C -12.89 -10.645 -13.121 -9.56 -13.121 -8.3 C -13.121 -3.927 -10.123 -1.342 -4.125 -.547 Z M 5.02 -1.491 C 3.761 -2.021 2.484 -2.37 1.192 -2.535 C -.1 -2.701 -1.392 -2.833 -2.684 -2.933 C -4.971 -3.099 -6.751 -3.612 -8.026 -4.474 C -9.303 -5.335 -9.939 -6.644 -9.939 -8.399 C -9.939 -9.195 -9.783 -9.883 -9.468 -10.462 C -9.153 -11.042 -8.739 -11.523 -8.226 -11.903 C -7.712 -12.285 -7.116 -12.566 -6.437 -12.748 C -5.758 -12.931 -5.069 -13.021 -4.374 -13.021 C -3.181 -13.021 -2.021 -12.873 -.895 -12.574 C .231 -12.276 1.233 -11.821 2.112 -11.208 C 2.989 -10.595 3.694 -9.816 4.226 -8.872 C 4.754 -7.928 5.02 -6.81 5.02 -5.517 Z M -4.424 13.518 L 1.094 20.427 L 4.92 20.427 L -1.889 13.518 Z " fill="#696976" />
                <path transform="matrix(1,0,0,-1,318.7188,142.1007)" d="M 0 0 C -.53 1.921 -1.44 3.421 -2.732 4.498 C -4.024 5.574 -5.666 6.113 -7.654 6.113 C -9.179 6.113 -10.486 5.798 -11.58 5.169 C -12.674 4.539 -13.568 3.702 -14.264 2.659 C -14.96 1.615 -15.474 .438 -15.805 -.87 C -16.137 -2.179 -16.302 -3.496 -16.302 -4.821 C -16.302 -6.18 -16.144 -7.505 -15.829 -8.797 C -15.515 -10.089 -15.01 -11.249 -14.313 -12.276 C -13.618 -13.304 -12.724 -14.123 -11.63 -14.736 C -10.536 -15.35 -9.212 -15.655 -7.654 -15.655 C -5.435 -15.655 -3.653 -15.043 -2.311 -13.816 C -.969 -12.591 -.116 -10.901 .248 -8.747 L 3.43 -8.747 C 3.164 -10.172 2.741 -11.473 2.162 -12.648 C 1.582 -13.825 .836 -14.836 -.074 -15.681 C -.986 -16.525 -2.071 -17.18 -3.33 -17.644 C -4.59 -18.107 -6.031 -18.339 -7.654 -18.339 C -9.709 -18.339 -11.479 -17.991 -12.972 -17.296 C -14.463 -16.6 -15.688 -15.646 -16.648 -14.438 C -17.611 -13.229 -18.323 -11.796 -18.787 -10.139 C -19.251 -8.482 -19.481 -6.71 -19.481 -4.821 C -19.481 -3.032 -19.227 -1.316 -18.712 .323 C -18.199 1.963 -17.443 3.412 -16.451 4.672 C -15.457 5.931 -14.223 6.933 -12.748 7.679 C -11.273 8.424 -9.576 8.797 -7.654 8.797 C -4.672 8.797 -2.262 8.084 -.423 6.66 C 1.416 5.234 2.567 3.015 3.031 0 Z " fill="#696976" />
            </g>
            <path transform="matrix(1,0,0,-1,0,283.465)" d="M 326.671 159.505 L 329.951 159.505 L 329.951 155.08101 L 326.671 155.08101 Z M 326.82 149.465 L 329.802 149.465 L 329.802 123.72099 L 326.82 123.72099 Z " fill="#696976" />
            <clipPath id="cp2">
                <path transform="matrix(1,0,0,-1,0,283.465)" d="M 0 0 L 566.929 0 L 566.929 283.465 L 0 283.465 Z " />
            </clipPath>
            <g clip-path="url(#cp2)">
                <path transform="matrix(1,0,0,-1,347.4941,144.7345)" d="M 0 0 C .563 .065 1.233 .165 2.013 .298 C 2.791 .43 3.429 .612 3.926 .845 C 4.423 1.076 4.73 1.466 4.846 2.013 C 4.961 2.56 5.021 3.063 5.021 3.528 C 5.021 5.052 4.53 6.303 3.554 7.28 C 2.575 8.258 .927 8.747 -1.392 8.747 C -2.419 8.747 -3.363 8.655 -4.225 8.474 C -5.087 8.291 -5.84 7.977 -6.486 7.529 C -7.132 7.082 -7.662 6.485 -8.076 5.74 C -8.491 4.994 -8.765 4.058 -8.896 2.932 L -11.929 2.932 C -11.829 4.455 -11.479 5.756 -10.885 6.833 C -10.288 7.91 -9.517 8.788 -8.573 9.468 C -7.629 10.146 -6.536 10.644 -5.293 10.958 C -4.051 11.273 -2.732 11.431 -1.342 11.431 C -.05 11.431 1.168 11.289 2.312 11.008 C 3.454 10.727 4.448 10.279 5.293 9.666 C 6.138 9.053 6.8 8.232 7.281 7.206 C 7.761 6.179 8.002 4.92 8.002 3.429 L 8.002 -10.587 C 8.002 -11.747 8.208 -12.483 8.623 -12.798 C 9.037 -13.113 9.873 -13.039 11.133 -12.574 L 11.133 -14.91 C 10.9 -14.978 10.562 -15.076 10.113 -15.209 C 9.666 -15.341 9.228 -15.407 8.797 -15.407 C 8.332 -15.407 7.885 -15.357 7.455 -15.258 C 6.958 -15.191 6.562 -15.034 6.262 -14.786 C 5.964 -14.538 5.723 -14.239 5.541 -13.892 C 5.358 -13.544 5.234 -13.163 5.169 -12.748 C 5.103 -12.335 5.069 -11.896 5.069 -11.432 C 3.811 -12.823 2.368 -13.884 .745 -14.612 C -.879 -15.341 -2.635 -15.705 -4.521 -15.705 C -5.648 -15.705 -6.733 -15.557 -7.778 -15.258 C -8.822 -14.96 -9.741 -14.496 -10.537 -13.866 C -11.332 -13.237 -11.962 -12.468 -12.425 -11.556 C -12.89 -10.645 -13.121 -9.56 -13.121 -8.3 C -13.121 -3.927 -10.123 -1.342 -4.125 -.547 Z M 5.021 -1.491 C 3.76 -2.021 2.484 -2.37 1.192 -2.535 C -.1 -2.701 -1.392 -2.833 -2.684 -2.933 C -4.971 -3.099 -6.752 -3.612 -8.025 -4.474 C -9.303 -5.335 -9.939 -6.644 -9.939 -8.399 C -9.939 -9.195 -9.783 -9.883 -9.468 -10.462 C -9.153 -11.042 -8.739 -11.523 -8.225 -11.903 C -7.712 -12.285 -7.116 -12.566 -6.436 -12.748 C -5.758 -12.931 -5.068 -13.021 -4.374 -13.021 C -3.181 -13.021 -2.021 -12.873 -.894 -12.574 C .232 -12.276 1.233 -11.821 2.112 -11.208 C 2.989 -10.595 3.694 -9.816 4.226 -8.872 C 4.754 -7.928 5.021 -6.81 5.021 -5.517 Z " fill="#696976" />
            </g>
        </g>
    </g>
</svg>