<svg xmlns="http://www.w3.org/2000/svg" xmlns:xlink="http://www.w3.org/1999/xlink" width="300" height="160" viewBox="0 0 300 160">
  <defs>
    <clipPath id="clip-Custom_Size_1">
      <rect width="300" height="160"/>
    </clipPath>
  </defs>
  <g id="Custom_Size_1" data-name="Custom Size – 1" clip-path="url(#clip-Custom_Size_1)">
    <path id="slido" d="M71.609,282.911c0,9.914-10.623,17.389-25.061,17.389-14.557,0-25.848-7.593-25.848-19.514H33.526c0,4.642,5.547,8.5,13.022,8.5,6.885,0,11.527-2.911,11.527-6.374,0-8.891-37.061-.118-37.061-21.717,0-9.482,10.111-17.468,24.55-17.468,14.557,0,24.865,8.3,24.865,20.183H57.6c0-4.564-4.446-9.206-12.039-9.206-7.082,0-11.527,2.715-11.527,6.452C34.037,270.6,71.609,261.9,71.609,282.911Zm10.308-58.975H94.743v74.751H81.917V223.936Zm40.8,6.255a8.891,8.891,0,1,1-8.891-8.891A8.832,8.832,0,0,1,122.715,230.191ZM107.372,245.26H120.2v53.427H107.372Zm67.276-21.324h12.826v74.751H174.648v-6.57a24.25,24.25,0,0,1-18.1,8.183c-12.944,0-26.045-10.19-26.045-28.287,0-18.294,13.14-28.287,26.045-28.287a24.621,24.621,0,0,1,18.1,8.065Zm0,48.077c0-10.308-7.593-16.563-15.658-16.563-8.183,0-15.658,6.177-15.658,16.563,0,10.19,7.475,16.445,15.658,16.445C167.055,288.5,174.648,282.2,174.648,272.013Zm82.108,0c0,15.54-12.432,28.287-29.507,28.287s-29.586-12.708-29.586-28.287c0-16.681,12.511-28.287,29.586-28.287S256.756,255.331,256.756,272.013Zm-13.022,0c0-9.993-7.357-16.681-16.445-16.681-9.285,0-16.563,6.57-16.563,16.681,0,9.8,7.278,16.563,16.563,16.563A16.125,16.125,0,0,0,243.733,272.013Z" transform="translate(11.3 -180.3)" fill="#696976"/>
  </g>
</svg>
