<svg xmlns="http://www.w3.org/2000/svg" xmlns:xlink="http://www.w3.org/1999/xlink" width="300" height="160" viewBox="0 0 300 160">
  <defs>
    <clipPath id="clip-path">
      <path id="path18" d="M0-91.966H316v76.893H0Z" transform="translate(0 91.966)"/>
    </clipPath>
    <clipPath id="clip-Custom_Size_1">
      <rect width="300" height="160"/>
    </clipPath>
  </defs>
  <g id="Custom_Size_1" data-name="Custom Size – 1" clip-path="url(#clip-Custom_Size_1)">
    <g id="g10" transform="translate(-8 133.52)">
      <path id="path12" d="M0-15.073H316V-91.966H0Z" fill="rgba(255,255,255,0)"/>
      <g id="g14" transform="translate(0 -91.966)">
        <g id="g16" clip-path="url(#clip-path)">
          <g id="g22" transform="translate(124.41 32.327)">
            <path id="path24" d="M-2.589-1.459h-7.445A4.945,4.945,0,0,1-8.258-4.227a4.341,4.341,0,0,1,2.576-.9,3.343,3.343,0,0,1,2.157.745A2.67,2.67,0,0,1-2.55-2.146a5.553,5.553,0,0,1-.039.687M-.108-7.243A6.135,6.135,0,0,0-2.475-8.522,10.117,10.117,0,0,0-5.262-8.9a10.819,10.819,0,0,0-3.913.726,9.785,9.785,0,0,0-3.359,2.157A10.684,10.684,0,0,0-14.9-2.472a12.488,12.488,0,0,0-.9,4.906,8.434,8.434,0,0,0,.707,3.607A6.988,6.988,0,0,0-13.2,8.524,7.752,7.752,0,0,0-10.53,9.955a10.32,10.32,0,0,0,3.055.457A10.825,10.825,0,0,0-2.857,9.383,11.829,11.829,0,0,0,.749,6.757L-2.4,3.923A6.527,6.527,0,0,1-7.515,6.291a3.771,3.771,0,0,1-2.329-.86,3.213,3.213,0,0,1-1.031-2.615c0-.153.007-.3.02-.439s.031-.287.058-.438H1.763q.191-.916.285-1.757a14.222,14.222,0,0,0,.1-1.6,8.893,8.893,0,0,0-.612-3.493A6.3,6.3,0,0,0-.108-7.243" transform="translate(15.799 8.904)" fill="#696976"/>
          </g>
          <g id="g26" transform="translate(162.921 25.134)">
            <path id="path28" d="M-2.5-.849A10.322,10.322,0,0,1,2.5.406l.236.138L4.3-3.723l0,0A12.593,12.593,0,0,0-2.09-5.18C-7.067-5.18-12.1-2.386-12.1,2.952c0,3.793,3.392,5.762,5.943,6.915,2.665,1.207,3.7,2.243,3.7,3.689,0,2.343-2.375,3.411-4.58,3.411a11.9,11.9,0,0,1-6.3-1.789l-.233-.146-1.693,4.193a13.035,13.035,0,0,0,7.573,2.089c6.305,0,10.542-3.383,10.542-8.419,0-3.145-1.692-5.261-5.653-7.07C-5.474,4.56-6.834,3.632-6.834,2.071c0-1.416,1.517-2.92,4.333-2.92" transform="translate(15.257 5.18)" fill="#696976"/>
          </g>
          <g id="g30" transform="translate(183.338 32.861)">
            <path id="path32" d="M-2.931,0-4.874,9.144a10.805,10.805,0,0,1-1.845,4.187,4.737,4.737,0,0,1-3.465,1.406,2.47,2.47,0,0,1-1.952-.707,2.845,2.845,0,0,1-.512-1.767,11.181,11.181,0,0,1,.2-1.993L-10.259,0H-15.3l-2.288,10.766a7.491,7.491,0,0,0,.226,4.925,5.452,5.452,0,0,0,1.24,1.718,5.277,5.277,0,0,0,1.795,1.031,6.679,6.679,0,0,0,2.158.342A10.74,10.74,0,0,0-9.324,18.4a10.075,10.075,0,0,0,2.959-1.45l.2,1.45H-1.9L2.012,0Z" transform="translate(17.881)" fill="#696976"/>
          </g>
          <g id="g34" transform="translate(143.168 25.63)">
            <path id="path36" d="M-2.978-3.041c-.23,3.3-2.516,6.417-5.393,6.214-2.031-.143-3.378-1.757-3.208-4.2.212-3.038,2.261-6.558,5.452-6.333,2.575.182,3.272,2.555,3.149,4.323m4.626-2.3A9.01,9.01,0,0,0,.8-8.478a5.067,5.067,0,0,0-2.041-2.15,6.4,6.4,0,0,0-3.274-.8A7.582,7.582,0,0,0-9.6-9.632l1.9-8.924h-5.02L-18.172,7.077h4.361l.72-1.978a4.274,4.274,0,0,0,1.94,1.732A6.6,6.6,0,0,0-8.3,7.439a8.165,8.165,0,0,0,4.408-1.27A10.674,10.674,0,0,0-.557,2.886,14.114,14.114,0,0,0,1.33-1.576a11.183,11.183,0,0,0,.318-3.765" transform="translate(18.172 18.556)" fill="#696976"/>
          </g>
          <g id="g38" transform="translate(201.117 32.403)">
            <path id="path40" d="M-3.208-1.659c-.229,3.3-2.516,6.417-5.393,6.214-2.03-.143-3.378-1.757-3.208-4.2.212-3.038,2.261-6.558,5.452-6.332,2.574.181,3.272,2.555,3.149,4.322M1.642-4.034A8.968,8.968,0,0,0,.8-7.172a5.074,5.074,0,0,0-2.04-2.149,6.392,6.392,0,0,0-3.275-.8A7.579,7.579,0,0,0-9.607-8.325l-.187-1.337h-4.331l-5.446,25.616h5l1.9-8.947a4.453,4.453,0,0,0,1.511,1.132,6.594,6.594,0,0,0,2.848.608A8.16,8.16,0,0,0-3.9,7.475,10.694,10.694,0,0,0-.562,4.193,14.121,14.121,0,0,0,1.323-.27a11.185,11.185,0,0,0,.319-3.765" transform="translate(19.571 10.12)" fill="#696976"/>
          </g>
          <g id="g42" transform="translate(244.196 32.365)">
            <path id="path44" d="M-1.719-2.986c-2.164,0-3.712-1.589-3.712-4.159,0-3.194,1.914-7.027,5.315-7.027,2.746,0,3.661,2.431,3.661,4.29,0,3.464-2.2,6.9-5.264,6.9M.45-18.219c-6.318,0-10.936,4.858-10.936,11.28a7.638,7.638,0,0,0,8.056,8A10.783,10.783,0,0,0,8.6-10.162,7.726,7.726,0,0,0,.45-18.219" transform="translate(10.487 18.219)" fill="#696976"/>
          </g>
          <g id="g46" transform="translate(263.735 32.48)">
            <path id="path48" d="M-2.825-.03A6.083,6.083,0,0,0-4.181-.183,6.133,6.133,0,0,0-6.472.276,8.1,8.1,0,0,0-8.838,1.841L-9.069.2h-4.256l-3.912,18.4h5l1.921-9.04A8.618,8.618,0,0,1-8.5,5.317,3.526,3.526,0,0,1-5.618,4.055a4.735,4.735,0,0,1,2.392.687L-2.086.171c-.252-.077-.5-.145-.739-.2" transform="translate(17.237 0.183)" fill="#696976"/>
          </g>
          <g id="g50" transform="translate(278.115 28.048)">
            <path id="path52" d="M-1.048-3.39.793-12.053H5.051l.812-3.818H1.605l1.023-4.813H-2.39L-6.164-2.933c-.1.511-.166.885-.191,1.126a6.133,6.133,0,0,0-.039.631,3.926,3.926,0,0,0,.4,1.813,3.63,3.63,0,0,0,1.07,1.28,6.1,6.1,0,0,0,3.149.992,8.82,8.82,0,0,0,3.264-.535A12.745,12.745,0,0,0,3.964,1.191L2.5-2.092A7.081,7.081,0,0,1,1.376-1.5,3.234,3.234,0,0,1,.1-1.214q-1.3,0-1.3-1.108a3.29,3.29,0,0,1,.039-.457c.026-.178.062-.382.115-.611" transform="translate(6.393 20.684)" fill="#696976"/>
          </g>
          <g id="g54" transform="translate(221.187 32.403)">
            <path id="path56" d="M-3.208-1.659c-.23,3.3-2.517,6.417-5.394,6.214-2.03-.143-3.377-1.757-3.207-4.2.212-3.038,2.26-6.558,5.452-6.332,2.574.181,3.272,2.555,3.149,4.322M.8-7.172A5.07,5.07,0,0,0-1.243-9.322a6.388,6.388,0,0,0-3.274-.8A7.577,7.577,0,0,0-9.607-8.325l-.188-1.337h-4.331l-5.445,25.616h5l1.9-8.947a4.475,4.475,0,0,0,1.511,1.132,6.6,6.6,0,0,0,2.848.608A8.157,8.157,0,0,0-3.9,7.475,10.67,10.67,0,0,0-.563,4.193,14.123,14.123,0,0,0,1.323-.27a11.184,11.184,0,0,0,.319-3.765A8.968,8.968,0,0,0,.8-7.172" transform="translate(19.571 10.12)" fill="#696976"/>
          </g>
          <g id="g58" transform="translate(95.657 25.631)">
            <path id="path60" d="M-5.339,0l-7.51,17.7L-13.777,0h-5.546l-7.891,17.7L-27.55,0h-5.023l.9,25.631h5.432l8.27-18.571L-17,25.631h5.592L0,0Z" transform="translate(32.573)" fill="#696976"/>
          </g>
          <g id="g62" transform="translate(25.629 43.235)">
            <path id="path64" d="M0,0,6.575,8.027H12.77L6.195,0Z" fill="#696976"/>
          </g>
          <g id="g66" transform="translate(27.495 25.63)">
            <path id="path68" d="M-1.02,0l-5.2,12.96H-.03l6.575,8.027,5.2-12.96L5.175,0Z" transform="translate(6.224)" fill="#696976"/>
          </g>
          <g id="g70" transform="translate(47.816 43.235)">
            <path id="path72" d="M0,0,6.575,8.027H12.77L6.195,0Z" fill="#696976"/>
          </g>
          <g id="g74" transform="translate(49.683 25.63)">
            <path id="path76" d="M-1.02,0l-5.2,12.96H-.03l6.575,8.027,5.2-12.96L5.175,0Z" transform="translate(6.224)" fill="#696976"/>
          </g>
          <g id="g78" transform="translate(70.004 43.235)">
            <path id="path80" d="M0,0,6.575,8.027H12.77L6.194,0Z" fill="#696976"/>
          </g>
          <g id="g82" transform="translate(71.869 25.63)">
            <path id="path84" d="M-2.235,0H-8.43l-5.2,12.96H-7.44Z" transform="translate(13.635)" fill="#696976"/>
          </g>
        </g>
      </g>
    </g>
  </g>
</svg>
